<?xml version="1.0"?>
<svg xmlns="http://www.w3.org/2000/svg" viewBox="0 0 64 64" width="512" height="512"><g id="Layer_11" data-name="Layer 11"><path d="M21,28H19a1,1,0,0,0,0,2h2a1,1,0,0,0,0-2Z"/><path d="M34,28H32a1,1,0,0,0,0,2h2a1,1,0,0,0,0-2Z"/><path d="M59.66,26.546l-8.844-1.179a7.044,7.044,0,0,1-4.024-1.989l-7.913-7.914A4.968,4.968,0,0,0,35.343,14H7.8a5.012,5.012,0,0,0-4.7,3.291L.783,23.671A12.962,12.962,0,0,0,0,28.114V39a3,3,0,0,0,3,3H6.08a6.991,6.991,0,0,0,13.84,0H42.08a6.991,6.991,0,0,0,13.84,0H61a3,3,0,0,0,3-3V31.5A5.015,5.015,0,0,0,59.66,26.546ZM62,33.78l-1.527-.3A3.008,3.008,0,0,1,58.444,32H62ZM2,30H4.727a1.944,1.944,0,0,1-.956.814L2,31.523Zm11,4a7,7,0,0,0-6.92,6H5.069a7.993,7.993,0,0,1,15.862,0H19.92A7,7,0,0,0,13,34Zm0,12a5,5,0,1,1,5-5A5.006,5.006,0,0,1,13,46ZM49,34a7,7,0,0,0-6.92,6H41.069a7.993,7.993,0,0,1,15.862,0H55.92A7,7,0,0,0,49,34Zm0,12a5,5,0,1,1,5-5A5.006,5.006,0,0,1,49,46Zm12-6H58.949a10,10,0,0,0-19.9,0h-16.1a10,10,0,0,0-19.9,0H3a1,1,0,0,1-1-1V33.677l2.514-1.006A3.935,3.935,0,0,0,7,29a1,1,0,0,0-1-1H2.005a10.972,10.972,0,0,1,.657-3.645l2.32-6.381A3.01,3.01,0,0,1,7.8,16H35.343a2.983,2.983,0,0,1,2.122.878l7.913,7.914a9.043,9.043,0,0,0,5.175,2.557L59.4,28.528A3,3,0,0,1,61.589,30H57a1,1,0,0,0-.949,1.316l.266.8a5.011,5.011,0,0,0,3.763,3.322L62,35.82V39A1,1,0,0,1,61,40Z"/><path d="M13,37a4,4,0,1,0,4,4A4,4,0,0,0,13,37Zm0,6a2,2,0,1,1,2-2A2,2,0,0,1,13,43Z"/><path d="M49,37a4,4,0,1,0,4,4A4,4,0,0,0,49,37Zm0,6a2,2,0,1,1,2-2A2,2,0,0,1,49,43Z"/><path d="M13,17H8.386a3.014,3.014,0,0,0-2.809,1.947l-1.5,4A3,3,0,0,0,6.886,27H13a1,1,0,0,0,1-1V18A1,1,0,0,0,13,17Zm-1,8H6.886a1,1,0,0,1-.936-1.351l1.5-4A1,1,0,0,1,8.386,19H12Z"/><path d="M26,17H17a1,1,0,0,0-1,1v8a1,1,0,0,0,1,1h9a1,1,0,0,0,1-1V18A1,1,0,0,0,26,17Zm-1,8H18V19h7Z"/><path d="M37.879,18.464a1,1,0,1,0-1.414,1.414L41.586,25H31V19h3a1,1,0,0,0,0-2H30a1,1,0,0,0-1,1v8a1,1,0,0,0,1,1H44a1,1,0,0,0,.707-1.707Z"/></g></svg>
