<?xml version="1.0" encoding="iso-8859-1"?>
<!-- Generator: Adobe Illustrator 19.0.0, SVG Export Plug-In . SVG Version: 6.00 Build 0)  -->
<svg version="1.1" id="Layer_1" xmlns="http://www.w3.org/2000/svg" xmlns:xlink="http://www.w3.org/1999/xlink" x="0px" y="0px"
	 viewBox="0 0 512 512" style="enable-background:new 0 0 512 512;" xml:space="preserve">
<g>
	<g>
		<path d="M271,242.509V153.58c17.459,6.192,30,22.865,30,42.42h30c0-36.219-25.808-66.522-60-73.491V96h-30v26.509
			c-34.192,6.968-60,37.271-60,73.491c0,36.22,25.808,66.522,60,73.491v88.929c-17.459-6.192-30-22.865-30-42.42h-30
			c0,36.219,25.808,66.522,60,73.491V416h30v-26.509c34.192-6.968,60-37.271,60-73.491C331,279.78,305.192,249.478,271,242.509z
			 M241,238.42c-17.459-6.192-30-22.865-30-42.42s12.541-36.228,30-42.42V238.42z M271,358.42v-84.84
			c17.459,6.192,30,22.865,30,42.42S288.459,352.228,271,358.42z"/>
	</g>
</g>
<g>
	<g>
		<path d="M256,0C114.615,0,0,114.615,0,256s114.615,256,256,256s256-114.615,256-256S397.385,0,256,0z M256,482
			C131.184,482,30,380.816,30,256S131.184,30,256,30s226,101.184,226,226S380.816,482,256,482z"/>
	</g>
</g>
<g>
</g>
<g>
</g>
<g>
</g>
<g>
</g>
<g>
</g>
<g>
</g>
<g>
</g>
<g>
</g>
<g>
</g>
<g>
</g>
<g>
</g>
<g>
</g>
<g>
</g>
<g>
</g>
<g>
</g>
</svg>
