<svg xmlns="http://www.w3.org/2000/svg" viewBox="0 0 512 512" style="enable-background:new 0 0 512 512" xml:space="preserve"><path d="M271 242.509V153.58c17.459 6.192 30 22.865 30 42.42h30c0-36.219-25.808-66.522-60-73.491V96h-30v26.509c-34.192 6.968-60 37.271-60 73.491s25.808 66.522 60 73.491v88.929c-17.459-6.192-30-22.865-30-42.42h-30c0 36.219 25.808 66.522 60 73.491V416h30v-26.509c34.192-6.968 60-37.271 60-73.491s-25.808-66.522-60-73.491zm-30-4.089c-17.459-6.192-30-22.865-30-42.42s12.541-36.228 30-42.42v84.84zm30 120v-84.84c17.459 6.192 30 22.865 30 42.42s-12.541 36.228-30 42.42z"/><path d="M256 0C114.615 0 0 114.615 0 256s114.615 256 256 256 256-114.615 256-256S397.385 0 256 0zm0 482C131.184 482 30 380.816 30 256S131.184 30 256 30s226 101.184 226 226-101.184 226-226 226z"/></svg>