<svg xmlns="http://www.w3.org/2000/svg" viewBox="0 0 80.1 80.1" style="enable-background:new 0 0 80.1 80.1" xml:space="preserve"><path d="M48.4 17.9c3.7 2.3 6.3 6.3 6.8 10.8 1.5.7 3.2 1.1 5 1.1C66.7 29.8 72 24.5 72 18c0-6.5-5.3-11.8-11.8-11.8-6.5.1-11.7 5.3-11.8 11.7zM40.7 42c6.5 0 11.8-5.3 11.8-11.8s-5.3-11.8-11.8-11.8-11.8 5.3-11.8 11.8S34.2 42 40.7 42zm4.9.8h-10c-8.3 0-15 6.8-15 15V70.2l.8.3c7.9 2.5 14.8 3.3 20.5 3.3 11.1 0 17.5-3.2 17.9-3.4l.8-.4h.1V57.8c0-8.3-6.8-15-15.1-15zm19.5-12.1h-9.9c-.1 4-1.8 7.5-4.5 10.1 7.4 2.2 12.8 9 12.8 17.1v3.8c9.8-.4 15.4-3.1 15.8-3.3l.8-.4h.1V45.7c-.1-8.3-6.8-15-15.1-15zM20 29.9c2.3 0 4.4-.7 6.2-1.8.6-3.8 2.6-7 5.5-9.3v-.7c0-6.5-5.3-11.8-11.8-11.8-6.5 0-11.8 5.3-11.8 11.8.2 6.5 5.4 11.8 11.9 11.8zm10.6 10.8c-2.7-2.6-4.3-6.1-4.5-10-.4 0-.7-.1-1.1-.1H15c-8.3 0-15 6.7-15 15V58l.8.3c6.4 2 12 2.9 16.9 3.2v-3.7c.1-8 5.5-14.9 12.9-17.1z" style="fill:#fff"/></svg>