<svg id="Icons" height="512" viewBox="0 0 512 512" width="512" xmlns="http://www.w3.org/2000/svg"><g fill="rgb(0,0,0)"><path d="m460 256.46c-1.29-20.69-39.79-24.36-62.55-27.82-37.34-4.71-44.35-6.81-48.19-8.79-15.67-16.1-38.48-44.86-60.71-51.32-24.65-6.76-65.11-4.06-73.77-2.73-10.65 1.64-14.7 17-14.87 57.81h-139.24c-9.45 0-13.68 8-13.68 15.86v57.18a15.8 15.8 0 0 0 -7.43 13.35v11.88a15.83 15.83 0 0 0 15.81 15.81h21.37c12.67 46 78.18 44.14 88.12-2.62h177.14c10 46.94 75.78 48.59 88.19 2.35.49.47 16.65.22 17.71.27a8.44 8.44 0 0 0 6.07-2.6c2.42-2.47 5.43-5.55 6.1-43.7.26-17.78-.07-34.39-.07-34.93zm-15 .67c.07 3.26.12 6.59.15 9.95h-13.3a95 95 0 0 1 -1.33-12.15c.73-.94 3.4-2.35 5.79-3.08 7.79 2.88 8.61 5.06 8.69 5.28zm-226.14-76.75c11.51-1.35 46.05-2.77 65.69 2.61 17.71 5.41 39.86 32.81 53.24 46.68-.29 19.87-3 43.58-4.16 64.55h-118.74c.17-19.64-1.45-109.16 3.97-113.84zm114.07 139.72h-118v-10.88h118.07c-.09 3.67-.12 7.3-.07 10.88zm-170.52-10.88h37.48v10.88h-34.58a44.66 44.66 0 0 0 -2.9-10.88zm-100.41-70.61h137.89v55.61h-47.44c-16.88-17.53-47-17.53-63.91 0h-26.54v-54.75c0-.34 0-.63 0-.86zm-7.47 83.3v-11.91a.81.81 0 0 1 .81-.81h23.24a45 45 0 0 0 -3.18 13.5h-20a.81.81 0 0 1 -.84-.78zm65.93 34.55a30.28 30.28 0 0 1 -30.24-30.24c1.66-40.12 58.83-40.11 60.49 0a30.28 30.28 0 0 1 -30.22 30.24zm265.82 0a30.28 30.28 0 0 1 -30.24-30.24c1.66-40.12 58.83-40.11 60.48 0a30.27 30.27 0 0 1 -30.21 30.24zm45.81-33.74a5.53 5.53 0 0 0 -.71 0c-2.87-38.35-50.1-55.73-77.05-28.54h-5.7c1.1-18.79 3.28-39.22 4-57.41 6.43 2.3 48.95 7.06 65.15 10.19a13.74 13.74 0 0 0 -2.25 7.6c0 7.84 2.57 20.89 2.68 21.44a7.51 7.51 0 0 0 7.36 6h19.59c-.13 17.54-.79 33.59-2 40.64z"/><path d="m120.49 303.62a22.63 22.63 0 0 0 -22.59 22.6c1.24 30 44 30 45.19 0a22.63 22.63 0 0 0 -22.6-22.6zm0 30.19a7.6 7.6 0 0 1 -7.59-7.59c.36-10.06 14.84-10.06 15.19 0a7.6 7.6 0 0 1 -7.6 7.59z"/><path d="m386.31 303.62a22.62 22.62 0 0 0 -22.59 22.6c1.24 30 43.95 30 45.19 0a22.63 22.63 0 0 0 -22.6-22.6zm0 30.19a7.59 7.59 0 0 1 -7.59-7.59c.35-10.06 14.83-10.06 15.19 0a7.6 7.6 0 0 1 -7.6 7.59z"/><path d="m233.73 243.81h83.73c5.64.17 9.5-6.6 6.44-11.36-3.64-6.07-26.38-32.85-35.67-38.94-14.33-9.39-28.9-9.33-47.33-9.26-4.83 0-9.8-.69-12.06 4.74-4.22 11.49-.93 32.66-2.58 46.64a7.55 7.55 0 0 0 7.47 8.18zm8.16-44.57c34.25-.68 38 3.92 60.19 29.57h-60.41c.33-9.65-.44-20.81.22-29.57z"/></g></svg>