<svg xmlns="http://www.w3.org/2000/svg" width="512" height="512"><path d="M98.025 317.265a7.477 7.477 0 0 0 5.303-2.196l11.336-11.337c2.929-2.929 2.929-7.677 0-10.606s-7.678-2.929-10.606 0l-11.336 11.337a7.5 7.5 0 0 0 5.303 12.802zM416.688 315.068c1.464 1.464 3.384 2.196 5.303 2.196s3.839-.732 5.303-2.196a7.5 7.5 0 0 0 0-10.606l-11.336-11.337a7.5 7.5 0 0 0-10.606 0 7.5 7.5 0 0 0 0 10.606z"/><path d="M489.383 238.186c-42.36-19.672-106.078-21.554-118.944-21.731l-60.762-38.667a111.526 111.526 0 0 0-59.974-17.465h-71.419c-18.49 0-37.005 4.371-53.543 12.64l-38.043 19.021a112.458 112.458 0 0 1-36.436 11.032l-29.648 3.706C8.862 208.19 0 218.229 0 230.072v47.869c0 14.011 9.409 26.485 22.881 30.334l35.431 10.123c6.086 19.269 24.126 33.279 45.381 33.279 17.679 0 33.125-9.699 41.328-24.049h229.973c8.203 14.35 23.649 24.049 41.328 24.049 26.236 0 47.581-21.345 47.581-47.581s-21.345-47.581-47.581-47.581-47.581 21.344-47.581 47.581c0 2.914.277 5.762.781 8.532h-219.03c.504-2.771.781-5.619.781-8.532 0-26.236-21.345-47.581-47.581-47.581-25.594 0-46.523 20.316-47.532 45.667l-29.159-8.331C19.936 291.833 15 285.291 15 277.941v-22.457h8.532a7.5 7.5 0 0 0 0-15H15v-10.412a8.545 8.545 0 0 1 7.474-8.466l29.648-3.706a127.428 127.428 0 0 0 41.284-12.5l3.421-1.71 13.873 13.809c8.987 8.987 20.936 13.937 33.645 13.937h15.462a7.5 7.5 0 0 0 0-15h-15.462c-1.311 0-2.607-.086-3.889-.238l8.287-36.604c9.582-2.812 19.566-4.272 29.542-4.272h38.152v41.113h-24.564a7.5 7.5 0 0 0 0 15h176.353c.711 0 71.566.258 114.84 20.354a23.572 23.572 0 0 1 6.734 4.726h-9.347a7.5 7.5 0 0 0 0 15h16.412c.081.812.136 1.628.136 2.456v26.612c0 7.43-3.27 12.045-8.532 12.045a7.5 7.5 0 0 0 0 15c6.642 0 12.677-2.733 16.995-7.696 4.276-4.917 6.537-11.607 6.537-19.349v-26.612c-.001-15.358-8.879-29.405-22.618-35.785zm-73.061 33.33c17.965 0 32.581 14.616 32.581 32.581s-14.616 32.581-32.581 32.581-32.581-14.616-32.581-32.581 14.616-32.581 32.581-32.581zm-312.629 0c17.965 0 32.581 14.616 32.581 32.581s-14.616 32.581-32.581 32.581-32.581-14.616-32.581-32.581 14.617-32.581 32.581-32.581zm22.566-60.549a32.918 32.918 0 0 1-4.953-4.074l-10.295-10.295 20.438-10.219c.14-.07.283-.135.423-.204zm105.177-35.645h18.267a96.559 96.559 0 0 1 51.921 15.12l40.847 25.994H231.436z"/><path d="M175.839 280.564a7.5 7.5 0 0 0 0 15h168.338a7.5 7.5 0 0 0 0-15z"/></svg>