<svg id="Layer_1" enable-background="new 0 0 511.347 511.347" height="512" viewBox="0 0 511.347 511.347" width="512" xmlns="http://www.w3.org/2000/svg"><path d="m511.347 202.773c0-10.519-8.557-19.075-19.075-19.075h-11.815c-4.558 0-8.744 1.611-12.029 4.288l-9.762-30.942c-3.933-12.469-15.362-20.846-28.439-20.846h-129.21c-3.083-18.111-11.789-33.089-21.503-48.264h9.684c24.543 0 24.583-38.15 0-38.15h-11.815c-4.558 0-8.744 1.611-12.028 4.287l-9.763-30.944c-3.933-12.467-15.362-20.844-28.439-20.844h-86.505c-9.386 0-9.813 15 0 15h86.505c6.5 0 12.18 4.162 14.135 10.357l14.29 45.293h-203.534l14.29-45.293c1.955-6.195 7.635-10.357 14.135-10.357h10.653c9.386 0 9.813-15 0-15h-10.654c-13.078 0-24.507 8.377-28.44 20.844l-9.762 30.944c-3.285-2.677-7.471-4.287-12.029-4.287h-11.815c-24.543 0-24.583 38.15 0 38.15h9.685c-12.96 20.244-22.931 40.369-22.931 65.113v38.142 32.552c0 9.656 7.857 17.512 17.516 17.512h13.698c9.658 0 17.516-7.855 17.516-17.512v-25.052h148.966c-.289 1.317-.451 2.681-.451 4.084 0 10.519 8.557 19.076 19.075 19.076h9.684c-9.73 15.2-18.367 30.091-21.487 48.245h-79.392c-13.078 0-24.507 8.377-28.44 20.845l-9.762 30.943c-3.285-2.677-7.471-4.288-12.029-4.288h-11.815c-10.518 0-19.075 8.557-19.075 19.075s8.557 19.076 19.075 19.076h9.685l-7.136 11.146c-10.333 16.143-15.795 34.804-15.795 53.967v70.693c0 9.655 7.857 17.511 17.516 17.511h13.699c9.658 0 17.516-7.855 17.516-17.511v-25.051h199.667v25.053c0 9.655 7.857 17.511 17.516 17.511h13.698c9.658 0 17.516-7.855 17.516-17.511l.143-70.693c0-9.386-15-9.813-15 0v30.64h-7.058l-.226-14.713c-.214-13.91-11.706-25.228-25.618-25.228h-.001c-23.257 0-44.324 13.76-53.671 35.054l-2.146 4.887h-89.829l-2.145-4.887c-9.348-21.294-30.416-35.054-53.672-35.054-13.912 0-25.404 11.316-25.619 25.228l-.229 14.713h-7.058v-30.641c0-16.291 4.644-32.156 13.428-45.879l12.313-19.234h215.787c6.208 9.697 13.31 19.347 18.091 29.854 3.889 8.541 17.718 2.715 13.651-6.217-3.801-8.348-9.002-15.936-13.932-23.637h9.685c11.981 0 21.177-11.463 18.629-23.143h98.986v25.052c0 9.656 7.857 17.512 17.516 17.512h13.699c9.658 0 17.516-7.855 17.516-17.512l.142-70.692c0-19.165-5.462-37.826-15.795-53.967l-7.135-11.146h9.684c10.517-.001 19.074-8.558 19.074-19.077zm-174.212 288.779c0 1.385-1.129 2.511-2.516 2.511h-13.698c-1.387 0-2.516-1.126-2.516-2.511v-25.052h4.429 14.301zm-32.76-64.993c5.768 0 10.531 4.691 10.62 10.458l.223 14.482h-4.313-45.946c7.196-15.193 22.529-24.94 39.416-24.94zm-212.085 10.459c.089-5.768 4.854-10.459 10.621-10.459 16.886 0 32.22 9.747 39.416 24.94h-46.089-4.17zm-7.839 29.482h4.287v25.053c0 1.385-1.128 2.511-2.516 2.511h-13.698c-1.387 0-2.516-1.126-2.516-2.511v-25.053zm391.93-263.727c0-2.247 1.828-4.075 4.075-4.075h11.815c2.247 0 4.075 1.828 4.075 4.075 0 2.248-1.828 4.076-4.075 4.076h-15.891v-4.076zm-32.02-41.217 14.29 45.293h-203.535l14.29-45.294c.362-1.148.853-2.224 1.452-3.219.013-.02.023-.04.036-.06 2.643-4.34 7.375-7.078 12.647-7.078h146.685c6.5 0 12.18 4.162 14.135 10.358zm-197.666 22.133h-31.563c7.197-15.192 22.526-24.941 39.411-24.941.007 0 .014.001.021.001zm26.613-114.83c0-2.247 1.828-4.075 4.075-4.075h11.815c5.268 0 5.268 8.15 0 8.15h-15.891v-4.075zm-258.961 0c0-2.247 1.828-4.075 4.075-4.075h11.815c2.248 0 4.076 1.828 4.076 4.075v4.075h-15.891c-2.247 0-4.075-1.828-4.075-4.075zm5.829 84.188c0-25.398 12.674-44.7 25.742-65.113h215.787c9.809 15.324 20.387 30.013 24.056 48.264h-2.219c-8.179 0-15.713 3.277-21.172 8.782-2.512-.806-5.145-1.232-7.827-1.232-23.256 0-44.323 13.76-53.672 35.055l-2.145 4.887h-89.829l-2.145-4.887c-9.348-21.295-30.416-35.055-53.672-35.055-13.912 0-25.404 11.316-25.619 25.228l-.226 14.714h-7.058v-30.643zm18.729 70.694c0 1.385-1.128 2.512-2.516 2.512h-13.698c-1.387 0-2.516-1.127-2.516-2.512v-25.052h18.73zm3.33-40.052.223-14.482c.089-5.768 4.854-10.459 10.621-10.459 16.886 0 32.22 9.747 39.416 24.941zm175.185 19.084c0-2.247 1.828-4.075 4.075-4.075h11.815c2.247 0 4.075 1.828 4.075 4.075v4.076h-15.891c-2.246 0-4.074-1.828-4.074-4.076zm-153.241 133.897c0-2.247 1.828-4.075 4.075-4.075h11.816c2.248 0 4.076 1.828 4.076 4.075v4.076h-15.891c-2.247 0-4.076-1.828-4.076-4.076zm37.697 4.076 14.29-45.294c1.955-6.195 7.635-10.357 14.135-10.357h146.684c6.501 0 12.182 4.162 14.136 10.358l14.289 45.293zm241.231-4.076c0 2.248-1.828 4.076-4.075 4.076h-15.892c-.65-2.96-.014-8.056 3.988-8.143h11.99c2.206.048 3.989 1.849 3.989 4.067zm75.092-19.067c7.196-15.193 22.53-24.94 39.416-24.94 5.768 0 10.531 4.691 10.62 10.458l.224 14.482zm72.177 40.052c0 1.385-1.129 2.512-2.516 2.512h-13.699c-1.387 0-2.516-1.127-2.516-2.512v-25.052h4.43 14.301zm.142-70.692v30.641h-7.057l-.227-14.713c-.214-13.91-11.706-25.228-25.618-25.228-23.256 0-44.323 13.76-53.672 35.054l-2.145 4.887h-87.961l-8.412-26.663c-3.933-12.469-15.362-20.846-28.44-20.846h-52.034c3.711-18.263 14.218-32.904 24.039-48.245h215.788l12.313 19.234c8.782 13.721 13.426 29.586 13.426 45.879z"/></svg>